<?xml version="1.0" encoding="utf-8"?>
<!-- Generator: Adobe Illustrator 20.0.0, SVG Export Plug-In . SVG Version: 6.00 Build 0)  -->
<svg version="1.1" id="Capa_1" xmlns="http://www.w3.org/2000/svg" xmlns:xlink="http://www.w3.org/1999/xlink" x="0px" y="0px"
	 viewBox="0 0 630 220.5" style="enable-background:new 0 0 630 220.5;" xml:space="preserve">
<style type="text/css">
	.st0{fill:#9B57CA;}
	.st1{fill:#F5515F;}
	.st2{fill:#FAD961;}
	.st3{fill:#3023AE;}
	.st4{fill:#B4EC51;}
</style>
<g>
	<g>
		<path d="M313.4,156.2c-17.5,0-32.4-6.2-44.7-18.5c-12.4-12.4-18.5-27.3-18.5-44.7V29.7h31.6v63.3c0,8.7,3,16.2,9.1,22.5
			c6.3,6.1,13.8,9.1,22.5,9.1c8.6,0,16-3,22.2-9.1c6.3-6.3,9.4-13.8,9.4-22.5V29.7h31.6v63.3c0,17.5-6.3,32.4-18.8,44.7
			C345.5,150,330.7,156.2,313.4,156.2z"/>
	</g>
	<path class="st0" d="M77.2,96c-5.3,0-9.8-1.8-13.6-5.4c-3.6-3.8-5.4-8.3-5.4-13.6c0-5.1,1.8-9.6,5.4-13.3c3.8-3.6,8.3-5.4,13.6-5.4
		c5.1,0,9.6,1.8,13.3,5.4C94.2,67.5,96,71.9,96,77c0,5.3-1.8,9.8-5.4,13.6C86.8,94.2,82.3,96,77.2,96z"/>
	<path class="st1" d="M173.2,96c-5.3,0-9.8-1.8-13.6-5.4c-3.6-3.8-5.4-8.3-5.4-13.6c0-5.1,1.8-9.6,5.4-13.3
		c3.8-3.6,8.3-5.4,13.6-5.4c5.1,0,9.6,1.8,13.3,5.4c3.6,3.8,5.4,8.2,5.4,13.3c0,5.3-1.8,9.8-5.4,13.6C182.7,94.2,178.3,96,173.2,96z
		"/>
	<path d="M217.3,32.7C205,20.2,190.3,13.9,173,13.9c-17.5,0-32.3,6.3-44.7,18.8c-1.2,1.2-2.3,2.4-3.3,3.6c-1.1-1.2-2.2-2.5-3.4-3.6
		c-12.4-12.5-27.2-18.8-44.5-18.8c-17.5,0-32.3,6.3-44.7,18.8C20,45,13.9,59.9,13.9,77.1v63.7h31V77.1c0-8.6,3.3-16,9.4-22.2
		c6.3-6.3,13.9-9.4,22.6-9.4c8.6,0,16.1,3.1,22.4,9.4c6.3,6.3,9.6,13.7,9.6,22.2v63.7h0.9h30.5h0.6V77.1c0-8.6,3.3-16,9.4-22.2
		c6.3-6.3,13.9-9.4,22.6-9.4c8.6,0,16.1,3.1,22.4,9.4c6.3,6.3,9.6,13.7,9.6,22.2v63.7h31V77.1C235.9,59.9,229.8,45,217.3,32.7z"/>
	<path class="st2" d="M457.2,96c-5.3,0-9.8-1.8-13.6-5.4c-3.6-3.8-5.4-8.3-5.4-13.6c0-5.1,1.8-9.6,5.4-13.3
		c3.8-3.6,8.3-5.4,13.6-5.4c5.1,0,9.6,1.8,13.3,5.4c3.6,3.8,5.4,8.2,5.4,13.3c0,5.3-1.8,9.8-5.4,13.6C466.8,94.2,462.3,96,457.2,96z
		"/>
	<path class="st3" d="M553.2,96c-5.3,0-9.8-1.8-13.6-5.4c-3.6-3.8-5.4-8.3-5.4-13.6c0-5.1,1.8-9.6,5.4-13.3
		c3.8-3.6,8.3-5.4,13.6-5.4c5.1,0,9.6,1.8,13.3,5.4c3.6,3.8,5.4,8.2,5.4,13.3c0,5.3-1.8,9.8-5.4,13.6C562.7,94.2,558.3,96,553.2,96z
		"/>
	<path d="M597.3,32.7C585,20.2,570.3,13.9,553,13.9c-17.5,0-32.3,6.3-44.7,18.8c-1.2,1.2-2.3,2.4-3.3,3.6c-1.1-1.2-2.2-2.5-3.4-3.6
		c-12.4-12.5-27.2-18.8-44.5-18.8c-17.5,0-32.3,6.3-44.7,18.8C400,45,393.9,59.9,393.9,77.1v63.7h31V77.1c0-8.6,3.3-16,9.4-22.2
		c6.3-6.3,13.9-9.4,22.6-9.4c8.6,0,16.1,3.1,22.4,9.4c6.3,6.3,9.6,13.7,9.6,22.2v63.7h0.9h30.5h0.6V77.1c0-8.6,3.3-16,9.4-22.2
		c6.3-6.3,13.9-9.4,22.6-9.4c8.6,0,16.1,3.1,22.4,9.4c6.3,6.3,9.6,13.7,9.6,22.2v63.7h31V77.1C615.9,59.9,609.8,45,597.3,32.7z"/>
	<path class="st4" d="M345,206.6c-5.3,0-9.8-1.8-13.6-5.4c-3.6-3.8-5.4-8.3-5.4-13.6c0-5.1,1.8-9.6,5.4-13.3
		c3.8-3.6,8.3-5.4,13.6-5.4c5.1,0,9.6,1.8,13.3,5.4c3.6,3.8,5.4,8.2,5.4,13.3c0,5.3-1.8,9.8-5.4,13.6
		C354.6,204.8,350.2,206.6,345,206.6z"/>
</g>
</svg>
