<?xml version="1.0" encoding="utf-8"?>
<!-- Generator: Adobe Illustrator 20.0.0, SVG Export Plug-In . SVG Version: 6.00 Build 0)  -->
<svg version="1.1" id="Capa_1" xmlns="http://www.w3.org/2000/svg" xmlns:xlink="http://www.w3.org/1999/xlink" x="0px" y="0px"
	 viewBox="0 0 375 390" style="enable-background:new 0 0 375 390;" xml:space="preserve">
<style type="text/css">
	.st0{fill:#FAD961;}
	.st1{fill:#9B57CA;}
	.st2{fill:#F5515F;}
	.st3{fill:#B4EC51;}
</style>
<path class="st0" d="M82.3,145.2c-17.8,0-33.2-6.1-46-18.4C24.1,114,18,98.7,18,80.8c0-17.3,6.1-32.3,18.4-45.1
	c12.8-12.2,28.1-18.4,46-18.4c17.3,0,32.3,6.1,45.1,18.4c12.2,12.8,18.4,27.9,18.4,45.1c0,17.8-6.1,33.2-18.4,46
	C114.6,139,99.6,145.2,82.3,145.2z"/>
<path class="st1" d="M112.2,372.8c-26.1,0-48.6-9-67.3-26.9C27,327.1,18,304.6,18,278.5c0-25.3,9-47.3,26.9-66.1
	c18.8-17.9,41.2-26.9,67.3-26.9c25.3,0,47.3,9,66.1,26.9c17.9,18.8,26.9,40.8,26.9,66.1c0,26.1-9,48.6-26.9,67.3
	C159.5,363.8,137.5,372.8,112.2,372.8z"/>
<path class="st2" d="M230.6,212.1c-19.2,0-35.7-6.6-49.5-19.8c-13.2-13.8-19.8-30.3-19.8-49.5c0-18.6,6.6-34.8,19.8-48.6
	c13.8-13.2,30.3-19.8,49.5-19.8c18.6,0,34.8,6.6,48.6,19.8c13.2,13.8,19.8,30,19.8,48.6c0,19.2-6.6,35.7-19.8,49.5
	C265.5,205.5,249.3,212.1,230.6,212.1z"/>
<path class="st3" d="M299.5,372.8c-18,0-33.4-6.2-46.4-18.5c-12.4-12.9-18.5-28.4-18.5-46.3c0-17.4,6.2-32.6,18.5-45.5
	c12.9-12.3,28.4-18.5,46.4-18.5c17.4,0,32.6,6.2,45.5,18.5c12.4,12.9,18.5,28.1,18.5,45.5c0,18-6.2,33.4-18.5,46.3
	C332.1,366.6,316.9,372.8,299.5,372.8z"/>
</svg>
